<svg xmlns="http://www.w3.org/2000/svg" viewBox="0 0 800 420" width="800" height="420">
  <defs>
    <linearGradient id="sky" x1="0" y1="0" x2="0" y2="1">
      <stop offset="0" stop-color="#6f86a8"/>
      <stop offset="1" stop-color="#c7d5ea"/>
    </linearGradient>
  </defs>
  <rect width="800" height="420" fill="url(#sky)"/>
  <g opacity="0.98">
    <path d="M200 250c0-52 42-94 94-94 40 0 75 25 88 60 8-2 16-3 25-3 46 0 84 38 84 84 0 47-38 85-84 85H260c-33 0-60-27-60-60 0-6 1-12 2-17-1 0-1 0-2-1z" fill="#ffffff"/>
  </g>
  <g fill="#3b82f6" opacity="0.85">
    <path d="M295 330c10-16 10-16 0-32 18 8 18 20 0 32z"/>
    <path d="M365 350c10-16 10-16 0-32 18 8 18 20 0 32z"/>
    <path d="M435 332c10-16 10-16 0-32 18 8 18 20 0 32z"/>
    <path d="M505 352c10-16 10-16 0-32 18 8 18 20 0 32z"/>
    <path d="M555 330c10-16 10-16 0-32 18 8 18 20 0 32z"/>
  </g>
</svg>
