<svg xmlns="http://www.w3.org/2000/svg" viewBox="0 0 800 420" width="800" height="420">
  <defs>
    <linearGradient id="sky" x1="0" y1="0" x2="0" y2="1">
      <stop offset="0" stop-color="#7a8aa1"/>
      <stop offset="1" stop-color="#e8eef7"/>
    </linearGradient>
  </defs>
  <rect width="800" height="420" fill="url(#sky)"/>
  <g opacity="0.98">
    <path d="M190 250c0-52 42-94 94-94 40 0 75 25 88 60 8-2 16-3 25-3 46 0 84 38 84 84 0 47-38 85-84 85H250c-33 0-60-27-60-60 0-6 1-12 2-17-1 0-1 0-2-1z" fill="#ffffff"/>
  </g>
  <g fill="#ffffff" opacity="0.92">
    <circle cx="300" cy="325" r="6"/>
    <circle cx="360" cy="355" r="5"/>
    <circle cx="430" cy="330" r="6"/>
    <circle cx="500" cy="360" r="5"/>
    <circle cx="560" cy="330" r="6"/>
  </g>
</svg>
